<svg width="573" height="160" viewBox="0 0 573 160" fill="none" xmlns="http://www.w3.org/2000/svg">
<mask id="mask0_2223_2" style="mask-type:luminance" maskUnits="userSpaceOnUse" x="236" y="0" width="337" height="160">
<path d="M572.738 1.8703e-05L236.572 0L236.572 159.724L572.738 159.724L572.738 1.8703e-05Z" fill="white"/>
</mask>
<g mask="url(#mask0_2223_2)">
<path d="M236.572 157.797L236.572 6.55896L297.047 6.55896C313.054 6.55896 325.421 10.0256 334.15 16.9588C338.478 20.436 341.917 24.8916 344.184 29.9586C346.452 35.0256 347.483 40.5589 347.193 46.1025C347.48 54.7574 344.447 63.1944 338.717 69.6869C332.497 76.3078 324.255 80.6778 315.285 82.112L315.285 79.0741C325.004 79.8589 334.167 83.9263 341.269 90.6081C344.511 94.0108 347.03 98.0355 348.673 102.439C350.316 106.842 351.049 111.533 350.828 116.228C351.179 122.065 350.148 127.902 347.818 133.265C345.489 138.628 341.926 143.366 337.421 147.093C328.49 154.263 315.865 157.847 299.548 157.847L236.572 157.797ZM253.919 74.1425L294.424 74.1425C303.742 74.831 313.026 72.4324 320.844 67.3173C323.779 64.9804 326.11 61.9723 327.64 58.5464C329.169 55.1205 329.853 51.3771 329.634 47.6316C329.887 43.8278 329.221 40.0189 327.691 36.5271C326.161 33.0353 323.813 29.9634 320.844 27.5712C313.018 22.4741 303.741 20.0738 294.424 20.7359L253.919 20.7359L253.919 74.1425ZM253.919 143.397L298.08 143.397C307.178 143.902 316.221 141.695 324.064 137.058C327.351 134.667 329.958 131.46 331.625 127.754C333.293 124.047 333.964 119.97 333.573 115.924C333.948 111.862 333.271 107.772 331.607 104.048C329.944 100.324 327.35 97.0902 324.074 94.6586C316.208 90.0813 307.179 87.896 298.09 88.3701L253.919 88.3701L253.919 143.397Z" fill="white"/>
<path d="M415.416 159.713C404.376 159.863 393.381 158.267 382.839 154.984C373.703 152.091 365.192 147.509 357.746 141.475L364.187 127.349C368.936 130.896 373.996 134.008 379.305 136.645C384.505 139.207 390.011 141.093 395.69 142.255C402.171 143.567 408.773 144.194 415.386 144.129C428.091 144.129 437.542 141.766 443.739 137.04C446.695 134.884 449.077 132.037 450.676 128.747C452.276 125.458 453.055 121.83 452.944 118.175C453.147 115.26 452.675 112.337 451.565 109.635C450.455 106.932 448.737 104.521 446.544 102.59C439.823 97.9895 432.116 95.0277 424.044 93.9421L401.543 89.4156C390.057 87.7642 379.26 82.9423 370.364 75.4918C366.901 72.1378 364.185 68.0904 362.395 63.6143C360.604 59.1383 359.779 54.3346 359.974 49.5176C359.918 41.1262 362.493 32.9282 367.336 26.075C372.269 19.1427 379.057 13.7414 386.92 10.4905C396.209 6.58656 406.213 4.67536 416.287 4.88046C426.283 4.76031 436.222 6.3952 445.653 9.71076C454.159 12.719 461.922 17.5152 468.418 23.7763L462.18 37.5381C456.045 31.8748 448.862 27.4648 441.036 24.5561C433.014 21.8026 424.574 20.4662 416.094 20.6068C406.25 20.0398 396.49 22.703 388.297 28.1914C384.986 30.5298 382.304 33.6504 380.489 37.2756C378.675 40.9009 377.784 44.9184 377.898 48.9708C377.739 52.0103 378.233 55.0485 379.345 57.8814C380.458 60.7144 382.164 63.2765 384.348 65.3958C390.535 70.1698 397.869 73.2325 405.614 74.2767L428.317 78.793C440.007 80.5083 451.075 85.144 460.499 92.2713C464.002 95.4541 466.753 99.3777 468.55 103.757C470.347 108.136 471.146 112.861 470.888 117.587C471.012 125.476 468.649 133.203 464.134 139.673C459.275 146.377 452.629 151.581 444.955 154.69C435.544 158.327 425.499 160.035 415.416 159.713Z" fill="white"/>
<path d="M501.611 79.755L490.877 72.0083L511.657 44.7885L478.726 35.1178L482.979 22.4902L515.181 34.0849L513.874 -0.000547361L527.332 -0.000546612L526.32 34.2874L558.724 22.4902L562.775 35.1178L529.985 44.7885L550.765 72.0083L539.849 79.755L520.791 51.2289L501.611 79.755Z" fill="white"/>
</g>
<path d="M188.219 112.565L188.543 62.3486C188.543 33.8934 182.606 19.6591 170.731 19.6456C163.103 19.6456 156.055 25.0463 149.587 35.8478C143.12 46.6493 137.976 62.217 134.155 82.5508C130.347 102.891 128.44 126.786 128.433 154.236C128.433 156.018 128.312 158.387 128.312 158.387L110.023 158.387C110.023 157.375 110.094 153.8 110.307 149.091C110.519 144.383 110.621 137.588 110.621 128.687L110.945 62.3385C110.736 33.8833 104.903 19.649 93.4464 19.6355C86.0204 19.6355 79.131 24.9754 72.7784 35.6554C66.4258 46.3354 61.285 61.6499 57.3559 81.5989C53.4269 101.555 51.4657 124.754 51.4725 151.198L51.4725 158.458L32.7285 158.458L33.6804 130.661L34.3184 43.7261C34.3184 36.0976 33.4678 30.4437 31.7665 26.7644C30.0653 23.0852 27.7328 21.2422 24.7692 21.2354C20.0975 21.2354 13.0091 27.3349 3.50374 39.5338C3.08856 40.0503 3.50374 39.5338 7.13612e-06 36.4959C6.35939 26.3695 12.2968 18.8051 17.8123 13.8026C23.3278 8.80021 29.0661 6.32936 35.0272 6.39012C40.9613 6.39012 45.2549 8.80695 47.908 13.6406C50.5611 18.4743 51.8877 25.8463 51.8877 35.7567L51.8877 86.3887C55.7087 60.7351 62.0208 40.7152 70.824 26.329C79.6273 11.9428 90.2836 4.76315 102.793 4.79015C111.698 4.79015 118.324 8.79346 122.671 16.8001C127.019 24.8067 129.085 37.5727 128.869 55.0981L128.869 87.1279C132.575 60.9545 138.843 40.6815 147.673 26.3088C156.503 11.936 167.156 4.75303 179.632 4.75978C188.746 4.75978 195.426 8.81034 199.672 16.9115C203.919 25.0126 206.146 37.7212 206.356 55.0374L206.032 112.91C206.032 127.704 188.219 132.646 188.219 112.565Z" fill="white"/>
<path d="M206.041 110.618C206.345 143.114 214.142 145.777 219.702 144.612C225.778 143.316 237.048 122.82 236.684 110.618L236.684 142.152C235.492 144.732 234.014 147.171 232.279 149.423C218.203 168.227 188.27 164.612 188.27 116.816C188.27 116.593 188.34 102.963 188.34 102.963" fill="white"/>
<path d="M49.7007 63.0761C49.7007 63.0761 61.2549 6.72275 97.6391 5.19367L97.6391 12.9302C97.6391 12.9302 66.8346 11.5227 51.807 86.377" fill="white"/>
<path d="M127.957 63.0761C127.957 63.0761 139.491 6.72275 175.946 5.19367L175.946 12.9302C175.946 12.9302 147.987 5.19366 128.007 97.9919" fill="white"/>
</svg>
