<svg width="942" height="179" viewBox="0 0 942 179" fill="none" xmlns="http://www.w3.org/2000/svg">
<g clip-path="url(#clip0_2219_2)">
<path d="M146.774 61.6109L146.935 35.5542C146.935 20.8159 143.969 13.4467 138.039 13.4467C134.24 13.4467 130.722 16.2503 127.485 21.8576C124.249 27.4648 121.686 35.5409 119.796 46.0855C117.694 58.7813 116.685 71.634 116.781 84.5022C116.781 85.4267 116.72 86.6627 116.72 86.6627H105.865C105.865 86.6627 105.865 84.7936 106.016 82.3517C106.166 79.9098 106.347 75.1668 106.579 70.5443V36.117C106.398 21.3552 103.372 14.0095 97.4318 14.0095C93.5788 14.0095 90.0006 16.7797 86.697 22.3199C83.3935 27.8602 80.7131 35.8088 78.656 46.1658C76.6457 56.5161 75.6406 68.5547 75.3792 82.2713V86.4918H65.8607L66.333 72.0717L66.6446 26.9625C66.6446 23.0032 66.2224 20.069 65.3781 18.1597C64.5237 16.2504 63.3678 15.2958 61.8802 15.2857C59.5483 15.2857 56.0036 18.4511 51.246 24.7818C51.0349 25.0532 51.246 24.7819 49.4971 23.2042C51.9278 18.9053 54.9191 14.9482 58.3925 11.4369C61.1398 8.85105 63.9978 7.56819 66.9663 7.58829C68.2876 7.51571 69.6011 7.83339 70.7431 8.50166C71.8852 9.16993 72.8054 10.1592 73.3891 11.3465C74.7293 13.8454 75.3994 17.6707 75.3994 22.8224V48.7684C77.4096 35.37 80.7064 24.9192 85.2898 17.4161C89.8732 9.91295 95.4383 6.16131 101.985 6.16131C104.137 6.08752 106.265 6.64108 108.108 7.75438C109.952 8.86768 111.432 10.4928 112.368 12.4319C114.64 16.6122 115.719 23.2778 115.605 32.429V48.9895C117.561 35.4369 120.825 24.9326 125.395 17.4763C129.965 10.0201 135.486 6.29867 141.959 6.31207C144.122 6.22259 146.263 6.77632 148.111 7.90317C149.959 9.03003 151.432 10.6795 152.342 12.6429C154.547 16.8567 155.703 23.4421 155.81 32.3989L155.649 61.9124C155.659 69.4892 146.774 72.0516 146.774 61.6109Z" fill="white"/>
<path d="M155.674 61.0957C155.825 77.9576 160.228 79.3845 163.102 78.7816C166.269 78.1083 172.149 67.4767 171.917 61.1359L172.138 77.214C171.441 78.6364 170.599 79.9834 169.626 81.2336C162.318 90.991 146.789 89.1017 146.789 64.3213C146.789 64.2007 146.789 57.2871 146.789 57.2871" fill="white"/>
<path d="M11.9015 41.3931L6.34309 37.3736L17.1283 23.3052L0.0410156 18.2808L2.25226 11.7289L18.9374 17.7582L18.2641 0.0722656H25.3L24.7572 17.8687L41.563 11.749L43.6637 18.3009L26.6468 23.3253L37.4319 37.3937L31.773 41.4132L21.8725 26.6113L11.9015 41.3931Z" fill="white"/>
<path d="M162.702 46.799C162.702 38.5388 164.123 31.4343 166.964 25.4854C169.602 19.7688 173.886 14.9686 179.267 11.6983C184.627 8.44249 191.07 6.81796 198.595 6.82465C205.29 6.64751 211.902 8.3349 217.693 11.6983C223.114 14.9675 227.45 19.7636 230.157 25.4854C233.071 31.4276 234.532 38.4953 234.539 46.6884C234.546 54.8816 233.068 62.0063 230.106 68.0624C227.377 73.8005 223.049 78.6295 217.643 81.9699C211.897 85.3582 205.314 87.0643 198.646 86.8939C191.107 86.8939 184.681 85.2525 179.367 81.9699C174 78.6322 169.727 73.7979 167.074 68.0624C164.16 62.0866 162.702 54.9988 162.702 46.799ZM172.341 46.799C172.341 56.8478 174.556 64.6925 178.985 70.3333C183.415 75.974 189.951 78.7978 198.595 78.8045C206.871 78.8045 213.314 75.9807 217.924 70.3333C222.534 64.6858 224.843 56.8411 224.849 46.799C224.849 36.6898 222.558 28.845 217.974 23.2645C213.391 17.6841 206.931 14.8973 198.595 14.904C189.951 14.904 183.415 17.6908 178.985 23.2645C174.556 28.8383 172.341 36.6831 172.341 46.799Z" fill="white"/>
<path d="M266.6 86.8935C260.892 86.9762 255.206 86.1554 249.754 84.4616C245.034 82.9466 240.639 80.5607 236.798 77.4274L240.125 70.1219C242.576 71.9615 245.19 73.5727 247.935 74.9353C250.624 76.2544 253.472 77.2236 256.408 77.8193C259.765 78.4736 263.18 78.7867 266.6 78.7538C273.174 78.7538 278.045 77.5379 281.215 75.1061C282.738 73.988 283.968 72.5171 284.798 70.8193C285.628 69.1215 286.033 67.2476 285.979 65.3588C285.979 61.8886 284.873 59.229 282.662 57.38C280.451 55.5311 276.574 54.0538 271.033 52.9485L259.393 50.6271C252.237 49.1533 246.903 46.7551 243.392 43.4322C239.88 40.1094 238.125 35.6041 238.125 29.9165C238.033 25.5821 239.29 21.3262 241.723 17.7373C244.277 14.1428 247.792 11.3396 251.865 9.64806C256.668 7.64291 261.838 6.66387 267.042 6.77398C272.208 6.70892 277.346 7.55256 282.22 9.2662C286.609 10.8129 290.614 13.2875 293.96 16.5214L290.743 23.5556C287.576 20.6367 283.873 18.3603 279.838 16.853C275.684 15.4443 271.317 14.7643 266.932 14.8432C260.901 14.8432 256.12 16.153 252.588 18.7724C250.898 19.9836 249.533 21.5931 248.614 23.4582C247.696 25.3234 247.252 27.3865 247.322 29.4643C247.322 33.0819 248.431 35.9056 250.649 37.9354C252.867 39.9653 256.522 41.4995 261.615 42.5379L273.355 44.8591C280.886 46.4066 286.425 48.7313 289.969 51.8331C293.514 54.9348 295.287 59.2893 295.287 64.8966C295.348 68.9699 294.128 72.9596 291.799 76.302C289.295 79.7704 285.859 82.4571 281.888 84.0496C277.039 86.0285 271.837 86.9962 266.6 86.8935Z" fill="white"/>
<path d="M334.161 86.887C326.334 86.887 319.69 85.2623 314.229 82.0132C308.749 78.7559 304.37 73.9332 301.655 68.166C298.727 62.1836 297.266 55.0589 297.272 46.7921C297.279 38.5252 298.74 31.4208 301.655 25.4785C304.383 19.736 308.761 14.9361 314.229 11.6914C319.684 8.43561 326.327 6.81107 334.161 6.81777C339.225 6.73248 344.26 7.59479 349.007 9.36016C353.289 11.006 357.177 13.5365 360.415 16.7863L356.987 24.0918C353.873 21.2645 350.318 18.9633 346.464 17.2787C342.581 15.7656 338.438 15.0314 334.271 15.1181C325.339 15.1181 318.548 17.8883 313.897 23.4285C309.247 28.9688 306.902 36.7567 306.861 46.7921C306.861 56.8409 309.207 64.6488 313.897 70.2159C318.588 75.7829 325.379 78.5699 334.271 78.5766C338.437 78.6665 342.58 77.9358 346.464 76.4261C350.333 74.7211 353.89 72.3809 356.987 69.5025L360.415 76.9185C357.142 80.1104 353.263 82.6148 349.007 84.2843C344.269 86.0899 339.23 86.9734 334.161 86.887Z" fill="white"/>
<path d="M360.761 46.7985C360.761 38.5383 362.185 31.4338 365.033 25.4849C367.664 19.767 371.945 14.9658 377.325 11.6978C382.686 8.442 389.129 6.81746 396.654 6.82416C403.348 6.65072 409.959 8.33785 415.751 11.6978C421.167 14.9739 425.501 19.7681 428.215 25.4849C431.13 31.4271 432.587 38.4948 432.587 46.688C432.587 54.8811 431.11 62.0058 428.155 68.0619C425.425 73.8 421.098 78.629 415.691 81.9694C409.946 85.3587 403.363 87.0649 396.694 86.8934C389.169 86.8934 382.746 85.2521 377.426 81.9694C372.056 78.6323 367.779 73.7981 365.123 68.0619C362.222 62.0862 360.767 54.9983 360.761 46.7985ZM370.4 46.7985C370.4 56.8473 372.615 64.692 377.044 70.3328C381.473 75.9735 388.01 78.7973 396.654 78.804C404.923 78.804 411.366 75.9802 415.983 70.3328C420.6 64.6853 422.908 56.8406 422.908 46.7985C422.908 36.6893 420.62 28.8445 416.043 23.264C411.466 17.6836 405.003 14.8968 396.654 14.9035C388.017 14.9035 381.48 17.6903 377.044 23.264C372.608 28.8378 370.393 36.6826 370.4 46.7985Z" fill="white"/>
<path d="M458.679 85.9109L431.43 7.8313H441.069L464.881 78.1732H461.001L486.038 7.8313H493.356L517.057 78.1732H513.509L537.994 7.8313H547.04L519.57 85.9109H511.368L488.33 18.2419H490.652L466.609 85.9109H458.679Z" fill="white"/>
<path d="M67.333 178.011V99.9312H98.5725C106.848 99.9312 113.234 101.703 117.73 105.247C122.227 108.791 124.481 113.815 124.495 120.32C124.643 124.791 123.075 129.148 120.113 132.499C117.198 135.755 113.157 137.899 107.991 138.931V137.373C113.753 138.043 118.276 140.019 121.56 143.302C124.843 146.585 126.485 150.996 126.485 156.536C126.485 163.477 124.177 168.792 119.56 172.484C114.943 176.175 108.426 178.021 100.01 178.021L67.333 178.011ZM76.3089 134.801H97.2457C103.277 134.801 107.816 133.618 110.865 131.253C113.914 128.889 115.429 125.492 115.408 121.064C115.408 116.488 113.894 113.038 110.865 110.714C107.837 108.389 103.297 107.227 97.2457 107.227H76.3089V134.801ZM76.3089 170.575H99.1253C104.734 170.575 109.183 169.486 112.474 167.309C115.764 165.131 117.405 161.494 117.399 156.396C117.399 151.23 115.757 147.546 112.474 145.342C109.19 143.138 104.741 142.049 99.1253 142.076H76.3089V170.575Z" fill="white"/>
<path d="M128.467 178.011L162.923 99.9312H170.853L205.862 178.011H196.333L186.584 155.753L190.685 158.074H142.941L147.373 155.753L137.845 178.011H128.467ZM166.833 110.452L148.881 152.537L146.228 150.527H187.438L185.428 152.537L167.044 110.452H166.833Z" fill="white"/>
<path d="M212.069 178.011V99.9312H243.972C252.174 99.9312 258.54 101.871 263.07 105.749C267.6 109.628 269.851 115.038 269.824 121.978C269.959 126.079 268.913 130.132 266.809 133.655C264.749 136.894 261.781 139.456 258.275 141.021C254.252 142.797 249.887 143.668 245.49 143.573L247.5 142.126H249.712C252.581 142.084 255.403 142.854 257.853 144.347C260.505 146.14 262.507 148.741 263.562 151.763L274.619 178.011H264.567L253.933 152.205C252.68 148.856 250.797 146.698 248.284 145.734C245.267 144.647 242.072 144.139 238.866 144.236H221.367V178.011H212.069ZM221.266 137.032H242.646C248.556 137.032 253.042 135.759 256.104 133.213C259.167 130.667 260.698 126.983 260.698 122.159C260.698 117.356 259.167 113.698 256.104 111.186C253.042 108.674 248.556 107.421 242.646 107.428H221.266V137.032Z" fill="white"/>
<path d="M283.212 178.011V99.9312H292.409V178.011H283.212Z" fill="white"/>
<path d="M331.852 178.998C326.144 179.081 320.458 178.26 315.006 176.567C310.292 175.066 305.898 172.701 302.05 169.593L305.377 162.277C307.83 164.116 310.444 165.731 313.187 167.101C315.877 168.416 318.724 169.382 321.66 169.975C325.016 170.637 328.431 170.954 331.852 170.919C338.412 170.919 343.284 169.7 346.467 167.261C347.991 166.144 349.221 164.673 350.051 162.975C350.881 161.277 351.286 159.403 351.231 157.514C351.231 154.047 350.125 151.384 347.914 149.545C345.703 147.706 341.813 146.219 336.274 145.114L324.645 142.782C317.482 141.315 312.148 138.917 308.643 135.587C305.139 132.258 303.383 127.753 303.377 122.072C303.283 117.737 304.54 113.481 306.975 109.893C309.535 106.316 313.05 103.53 317.117 101.854C321.919 99.845 327.089 98.8626 332.294 98.9696C337.457 98.9088 342.59 99.7522 347.462 101.462C351.855 103.006 355.863 105.481 359.212 108.717L355.995 115.801C352.825 112.889 349.122 110.616 345.09 109.109C340.936 107.7 336.569 107.02 332.184 107.099C326.153 107.099 321.368 108.409 317.83 111.028C316.143 112.239 314.78 113.847 313.863 115.71C312.946 117.574 312.503 119.635 312.574 121.71C312.574 125.334 313.683 128.161 315.901 130.191C318.119 132.221 321.774 133.752 326.866 134.784L338.606 137.105C346.138 138.666 351.677 141.01 355.221 144.139C358.766 147.268 360.538 151.622 360.538 157.203C360.602 161.276 359.381 165.266 357.051 168.608C354.539 172.075 351.101 174.764 347.13 176.366C342.268 178.269 337.07 179.164 331.852 178.998Z" fill="white"/>
<path d="M387.126 178.003V107.661H359.545V99.9038H423.793V107.661H396.323V178.003H387.126Z" fill="white"/>
<path d="M413.381 178.011L447.827 99.9312H455.807L490.816 178.011H481.288L471.538 155.753L475.639 158.074H427.895L432.328 155.753L422.799 178.011H413.381ZM451.707 110.452L433.765 152.537L431.101 150.527H472.312L470.302 152.537L451.908 110.452H451.707Z" fill="white"/>
<path d="M545.865 178.998C540.156 179.081 534.471 178.26 529.019 176.567C524.304 175.066 519.911 172.701 516.062 169.593L519.39 162.277C521.843 164.116 524.456 165.731 527.199 167.101C529.89 168.416 532.737 169.382 535.673 169.975C539.029 170.637 542.444 170.954 545.865 170.919C552.432 170.919 557.303 169.7 560.479 167.261C562.004 166.144 563.234 164.673 564.064 162.975C564.894 161.277 565.299 159.403 565.244 157.514C565.244 154.047 564.138 151.384 561.927 149.545C559.715 147.706 555.836 146.219 550.287 145.114L538.658 142.782C531.501 141.315 526.167 138.917 522.656 135.587C519.145 132.258 517.389 127.753 517.389 122.072C517.301 117.738 518.558 113.483 520.988 109.893C523.548 106.316 527.062 103.53 531.129 101.854C535.932 99.845 541.102 98.8626 546.307 98.9696C551.473 98.9093 556.609 99.7527 561.484 101.462C565.874 103.008 569.878 105.483 573.224 108.717L570.008 115.801C566.838 112.889 563.135 110.616 559.102 109.109C554.948 107.7 550.582 107.02 546.196 107.099C540.166 107.099 535.385 108.409 531.853 111.028C530.163 112.237 528.798 113.845 527.879 115.708C526.96 117.572 526.516 119.634 526.586 121.71C526.586 125.334 527.695 128.161 529.913 130.191C532.131 132.221 535.787 133.752 540.879 134.784L552.619 137.105C560.144 138.666 565.683 141.011 569.234 144.139C572.785 147.268 574.558 151.622 574.551 157.203C574.614 161.276 573.394 165.266 571.063 168.608C568.556 172.075 565.121 174.764 561.153 176.366C556.287 178.268 551.086 179.163 545.865 178.998Z" fill="white"/>
<path d="M617.874 179.012C610.047 179.012 603.4 177.388 597.932 174.138C592.46 170.879 588.085 166.061 585.368 160.301C582.439 154.325 580.979 147.201 580.985 138.927C580.992 130.654 582.453 123.546 585.368 117.604C588.098 111.866 592.471 107.067 597.932 103.817C603.4 100.568 610.047 98.943 617.874 98.943C622.938 98.8616 627.973 99.7273 632.72 101.495C636.998 103.144 640.885 105.67 644.128 108.911L640.7 116.217C637.583 113.396 634.029 111.099 630.176 109.414C626.295 107.896 622.151 107.162 617.984 107.253C609.052 107.253 602.257 110.02 597.6 115.554C592.943 121.087 590.618 128.879 590.625 138.927C590.625 148.976 592.95 156.784 597.6 162.351C602.251 167.918 609.045 170.705 617.984 170.712C622.151 170.799 626.294 170.064 630.176 168.551C634.048 166.85 637.606 164.509 640.7 161.628L644.128 169.044C640.856 172.237 636.977 174.742 632.72 176.409C627.982 178.214 622.943 179.097 617.874 179.012Z" fill="white"/>
<path d="M654.092 178.011V99.9312H663.289V134.489H710.369V99.9312H719.415V178.011H710.369V142.347H663.289V178.011H654.092Z" fill="white"/>
<path d="M730.521 138.913C730.521 130.639 731.945 123.531 734.793 117.589C737.427 111.873 741.707 107.073 747.086 103.802C752.447 100.553 758.89 98.9286 766.415 98.9286C773.109 98.7594 779.719 100.446 785.512 103.802C790.925 107.081 795.259 111.874 797.976 117.589C800.891 123.538 802.348 130.609 802.348 138.802C802.348 146.995 800.871 154.12 797.916 160.176C795.183 165.91 790.856 170.735 785.452 174.074C779.706 177.462 773.124 179.168 766.455 178.998C758.923 178.998 752.497 177.356 747.176 174.074C741.815 170.734 737.543 165.905 734.884 160.176C731.982 154.201 730.528 147.113 730.521 138.913ZM740.161 138.913C740.161 148.962 742.375 156.807 746.805 162.447C751.234 168.088 757.771 170.912 766.415 170.919C774.69 170.919 781.133 168.095 785.743 162.447C790.354 156.8 792.662 148.955 792.669 138.913C792.669 128.79 790.38 120.946 785.804 115.379C781.227 109.811 774.764 107.025 766.415 107.018C757.771 107.018 751.234 109.805 746.805 115.379C742.375 120.952 740.161 128.797 740.161 138.913Z" fill="white"/>
<path d="M810.499 138.913C810.499 130.64 811.923 123.532 814.771 117.589C817.405 111.873 821.685 107.073 827.064 103.802C832.424 100.553 838.867 98.9287 846.392 98.9287C853.086 98.7584 859.696 100.445 865.49 103.802C870.903 107.081 875.236 111.874 877.953 117.589C880.868 123.538 882.326 130.609 882.326 138.802C882.326 146.996 880.848 154.12 877.893 160.176C875.161 165.91 870.833 170.735 865.43 174.074C859.684 177.463 853.101 179.169 846.433 178.998C838.907 178.998 832.481 177.357 827.154 174.074C821.792 170.734 817.521 165.905 814.861 160.176C811.96 154.201 810.506 147.113 810.499 138.913ZM820.138 138.913C820.138 148.962 822.353 156.807 826.782 162.447C831.211 168.088 837.748 170.912 846.392 170.919C854.668 170.919 861.111 168.095 865.721 162.447C870.331 156.8 872.64 148.955 872.646 138.913C872.646 128.791 870.358 120.946 865.781 115.379C861.205 109.812 854.742 107.025 846.392 107.018C837.748 107.018 831.211 109.805 826.782 115.379C822.353 120.952 820.148 128.797 820.168 138.913H820.138Z" fill="white"/>
<path d="M893.361 178.011V99.9312H902.588V170.042H942.02V178.011H893.361Z" fill="white"/>
</g>
<defs>
<clipPath id="clip0_2219_2">
<rect width="942" height="179" fill="white"/>
</clipPath>
</defs>
</svg>
